# xmcd
#
# Track frame offsets:
#	150
#	10706
#	21856
#	43069
#	52690
#	70554
#	81564
#	97762
#	107146
#	119223
#	133661
#	145682
#
# Disc length: 2112 seconds
#
# Revision: 1
# Processed by: cddbd v1.5.1PL0 Copyright (c) Steve Scherf et al.
# Submitted via: audiograbber 1.83.01
#
DISCID=9a083e0c
DTITLE=John Hore - Introducing John Hore
DYEAR=1900
DGENRE=
TTITLE0=Beggin' To You
TTITLE1=Old Red
TTITLE2=El Paso
TTITLE3=Fool Never Learns
TTITLE4=Cool Water
TTITLE5=Cowboy Dream
TTITLE6=Marianne
TTITLE7=Everglades
TTITLE8=Come On Home Boy
TTITLE9=I Fall To Pieces
TTITLE10=If You Don't Know
TTITLE11=Tongue Tied Smith
EXTD=
EXTT0=
EXTT1=
EXTT2=
EXTT3=
EXTT4=
EXTT5=
EXTT6=
EXTT7=
EXTT8=
EXTT9=
EXTT10=
EXTT11=
PLAYORDER=
